<svg width="25" height="24" viewBox="0 0 25 24" fill="none" xmlns="http://www.w3.org/2000/svg">
<circle cx="12.2002" cy="12" r="9.33496" stroke="white" stroke-width="1.4"/>
<path d="M14.31 20.4678V18.1348C14.3326 17.8473 14.2938 17.5583 14.1961 17.2871C14.0984 17.0158 13.944 16.7684 13.7433 16.5614C15.6362 16.3504 17.6256 15.633 17.6256 12.3415C17.6255 11.4998 17.3017 10.6904 16.7214 10.0808C16.9962 9.34443 16.9767 8.5305 16.6671 7.80808C16.6671 7.80808 15.9557 7.59709 14.31 8.70029C12.9283 8.32582 11.4718 8.32582 10.0901 8.70029C8.44433 7.59709 7.73298 7.80808 7.73298 7.80808C7.42335 8.5305 7.40391 9.34443 7.67872 10.0808C7.09404 10.6949 6.76995 11.5116 6.77446 12.3595C6.77446 15.6269 8.76384 16.3443 10.6568 16.5794C10.4584 16.7844 10.3055 17.0288 10.2078 17.2968C10.1102 17.5647 10.0701 17.8503 10.0901 18.1348V20.4678" stroke="white" stroke-width="1.4" stroke-linecap="round" stroke-linejoin="round"/>
</svg>
