<svg width="25" height="24" viewBox="0 0 25 24" fill="none" xmlns="http://www.w3.org/2000/svg">
<path d="M9.79513 15.3048C9.79513 15.8025 9.39159 16.2061 8.89379 16.2061V16.2061C8.39599 16.2061 7.99245 15.8025 7.99245 15.3048V11.2498C7.99245 10.752 8.39599 10.3485 8.89379 10.3485V10.3485C9.39159 10.3485 9.79513 10.752 9.79513 11.2498V15.3048ZM8.89379 9.597C8.2437 9.597 7.91809 9.29618 7.91809 8.69566C7.91607 8.57514 7.94021 8.45563 7.98883 8.34534C8.03746 8.23506 8.10942 8.13663 8.19975 8.05683C8.38763 7.88155 8.63694 7.78725 8.89379 7.79432C9.54388 7.79432 9.86949 8.09627 9.86949 8.69678C9.86949 9.2973 9.54501 9.597 8.89379 9.597ZM16.4808 15.2862C16.4808 15.7942 16.069 16.2061 15.5609 16.2061V16.2061C15.0528 16.2061 14.641 15.7942 14.641 15.2862V12.9387C14.641 12.0881 14.339 11.6622 13.7385 11.6622C13.263 11.6622 12.951 11.8999 12.7989 12.3754C12.7504 12.4509 12.7245 12.6019 12.7245 12.8261V15.2862C12.7245 15.7942 12.3126 16.2061 11.8046 16.2061V16.2061C11.2965 16.2061 10.8846 15.7942 10.8846 15.2862V12.2255C10.8846 11.8394 10.8821 11.5039 10.8774 11.2189C10.8697 10.7476 11.2473 10.3485 11.7186 10.3485V10.3485C12.1239 10.3485 12.4674 10.6464 12.5248 11.0475L12.5375 11.136C12.951 10.5096 13.5515 10.1975 14.3773 10.1975C15.0049 10.1975 15.5108 10.4161 15.8983 10.8544C16.2882 11.2927 16.482 11.9247 16.482 12.7517L16.4808 14.1356V15.2862Z" fill="white"/>
<circle cx="12.2002" cy="12" r="9.33496" stroke="white" stroke-width="1.4"/>
</svg>
